<svg width="77" height="77" viewBox="0 0 77 77" fill="none" xmlns="http://www.w3.org/2000/svg">
<rect width="77" height="77" rx="4" fill="#06AC78"/>
<path d="M39.88 61.024C37.5333 61.024 35.2933 60.6827 33.16 60C31.0267 59.2747 29.0853 58.144 27.336 56.608C25.5867 55.0293 24.1147 52.96 22.92 50.4L28.936 46.816C30.344 49.2907 31.944 51.104 33.736 52.256C35.528 53.408 37.6827 53.984 40.2 53.984C42.5467 53.984 44.3173 53.472 45.512 52.448C46.7493 51.424 47.368 50.016 47.368 48.224C47.368 47.1573 47.0907 46.24 46.536 45.472C46.024 44.6613 45.0853 43.9147 43.72 43.232C42.3973 42.5067 40.4987 41.8453 38.024 41.248C34.6107 40.3947 31.944 39.3493 30.024 38.112C28.104 36.832 26.76 35.36 25.992 33.696C25.224 31.9893 24.84 30.1333 24.84 28.128C24.84 25.6533 25.416 23.4987 26.568 21.664C27.72 19.8293 29.384 18.3787 31.56 17.312C33.736 16.2453 36.3173 15.712 39.304 15.712C42.8453 15.712 45.768 16.3947 48.072 17.76C50.4187 19.1253 52.36 20.9387 53.896 23.2L47.816 27.232C46.5787 25.6533 45.2133 24.544 43.72 23.904C42.2693 23.2213 40.7547 22.88 39.176 22.88C36.9147 22.88 35.1867 23.328 33.992 24.224C32.7973 25.0773 32.2 26.336 32.2 28C32.2 29.408 32.776 30.624 33.928 31.648C35.08 32.672 37.32 33.5893 40.648 34.4C44.232 35.296 47.0693 36.3627 49.16 37.6C51.2507 38.7947 52.7227 40.2667 53.576 42.016C54.472 43.7227 54.92 45.7707 54.92 48.16C54.92 50.592 54.3013 52.768 53.064 54.688C51.8267 56.608 50.0773 58.144 47.816 59.296C45.5973 60.448 42.952 61.024 39.88 61.024Z" fill="white"/>
</svg>
